<?xml version="1.0" encoding="UTF-8" standalone="no"?>
<svg width="225px" height="50px" viewBox="0 0 225 50" version="1.1" xmlns="http://www.w3.org/2000/svg" xmlns:xlink="http://www.w3.org/1999/xlink">
    <!-- Generator: sketchtool 3.6.1 (26313) - http://www.bohemiancoding.com/sketch -->
    <title>B394923C-20BD-43AD-B5AF-DD06EC918E5D</title>
    <desc>Created with sketchtool.</desc>
    <defs></defs>
    <g id="Page-1" stroke="none" stroke-width="1" fill="none" fill-rule="evenodd">
        <g id="Desktop-HD-Home-Sporttu" transform="translate(-171.000000, -40.000000)">
            <g id="Header">
                <g id="Sporttu-logo" transform="translate(171.000000, 40.000000)">
                    <g id="Layer_1">
                        <g id="Group" transform="translate(45.238095, 2.380952)" fill="#EBECEF">
                            <path d="M2.26190476,21.6666667 C3.80952381,22.6190476 6.54761905,23.8095238 9.76190476,23.8095238 C13.6904762,23.8095238 16.4285714,22.0238095 16.4285714,19.4047619 C16.4285714,17.8571429 15.1190476,16.7857143 12.6190476,16.0714286 L8.45238095,14.8809524 C4.76190476,13.8095238 3.21428571,11.9047619 3.21428571,9.16666667 C3.21428571,4.76190476 6.30952381,0.952380952 13.9285714,0.952380952 C17.3809524,0.952380952 20.8333333,2.02380952 22.5,2.97619048 L20.952381,6.42857143 C19.4047619,5.5952381 16.3095238,4.76190476 13.5714286,4.76190476 C9.04761905,4.76190476 7.38095238,6.66666667 7.38095238,8.80952381 C7.38095238,10.2380952 8.33333333,10.952381 10.2380952,11.547619 L14.4047619,12.7380952 C18.5714286,13.9285714 20.5952381,15.952381 20.5952381,18.9285714 C20.5952381,24.5238095 15.8333333,27.6190476 9.4047619,27.6190476 C5.47619048,27.6190476 2.14285714,26.3095238 0.714285714,25.3571429 L2.26190476,21.6666667 L2.26190476,21.6666667 Z" id="Shape"></path>
                            <path d="M29.5238095,1.42857143 L40.7142857,1.42857143 C45,1.42857143 48.3333333,4.04761905 48.3333333,9.04761905 C48.3333333,15.952381 43.0952381,19.6428571 37.7380952,19.6428571 L30.2380952,19.6428571 L28.9285714,27.1428571 L25,27.1428571 L29.5238095,1.42857143 L29.5238095,1.42857143 Z M32.8571429,4.88095238 L30.8333333,16.1904762 L37.7380952,16.1904762 C41.0714286,16.1904762 44.2857143,13.6904762 44.2857143,9.4047619 C44.2857143,6.42857143 42.3809524,4.88095238 39.7619048,4.88095238 L32.8571429,4.88095238 L32.8571429,4.88095238 Z" id="Shape"></path>
                            <path d="M66.3095238,1.07142857 C72.8571429,1.07142857 77.2619048,5.83333333 77.2619048,12.3809524 C77.2619048,21.0714286 70.1190476,27.6190476 61.9047619,27.6190476 C55.4761905,27.6190476 51.0714286,22.8571429 51.0714286,16.4285714 C51.0714286,7.61904762 58.0952381,1.07142857 66.3095238,1.07142857 L66.3095238,1.07142857 Z M62.5,23.8095238 C68.452381,23.8095238 73.3333333,18.9285714 73.3333333,12.6190476 C73.3333333,8.0952381 70.4761905,4.76190476 65.8333333,4.76190476 C60,4.76190476 55,9.64285714 55,15.952381 C55.1190476,20.3571429 57.9761905,23.8095238 62.5,23.8095238 L62.5,23.8095238 Z" id="Shape"></path>
                            <path d="M85.2380952,1.42857143 L96.1904762,1.42857143 C100.357143,1.42857143 104.285714,3.57142857 104.285714,8.45238095 C104.285714,13.9285714 100.357143,17.1428571 95.8333333,17.6190476 L103.809524,26.547619 L103.809524,27.1428571 L99.2857143,27.1428571 L91.0714286,17.7380952 L86.3095238,17.7380952 L84.6428571,27.1428571 L80.7142857,27.1428571 L85.2380952,1.42857143 L85.2380952,1.42857143 Z M88.5714286,4.88095238 L86.7857143,14.5238095 L94.1666667,14.5238095 C97.2619048,14.5238095 100,12.3809524 100,8.80952381 C100,6.19047619 98.2142857,4.88095238 95.8333333,4.88095238 L88.5714286,4.88095238 L88.5714286,4.88095238 Z" id="Shape"></path>
                            <path d="M121.190476,4.88095238 L117.261905,27.1428571 L113.333333,27.1428571 L117.261905,4.88095238 L108.333333,4.88095238 L108.928571,1.42857143 L130.238095,1.42857143 L129.642857,4.88095238 L121.190476,4.88095238 L121.190476,4.88095238 Z" id="Shape"></path>
                            <path d="M144.166667,4.88095238 L140.238095,27.1428571 L136.309524,27.1428571 L140.238095,4.88095238 L131.428571,4.88095238 L132.02381,1.42857143 L153.333333,1.42857143 L152.738095,4.88095238 L144.166667,4.88095238 L144.166667,4.88095238 Z" id="Shape"></path>
                            <path d="M158.809524,16.3095238 C157.97619,20.952381 159.761905,23.9285714 164.52381,23.9285714 C169.404762,23.9285714 172.261905,20.7142857 173.095238,16.1904762 L175.714286,1.42857143 L179.642857,1.42857143 L177.02381,16.547619 C175.952381,22.5 171.904762,27.6190476 164.166667,27.6190476 C156.904762,27.6190476 153.809524,22.9761905 154.880952,16.547619 L157.5,1.42857143 L161.428571,1.42857143 L158.809524,16.3095238 L158.809524,16.3095238 Z" id="Shape"></path>
                        </g>
                        <path d="M28.5714286,20.4761905 C30.7142857,13.9285714 29.8809524,6.66666667 25.4761905,0 L19.4047619,1.78571429 C22.1428571,5.95238095 23.3333333,10.3571429 22.9761905,14.6428571 C22.9761905,14.6428571 24.047619,15.4761905 25.8333333,17.2619048 C27.7380952,19.1666667 28.5714286,20.4761905 28.5714286,20.4761905 L28.5714286,20.4761905 Z" id="Shape" fill="#97CA2F"></path>
                        <path d="M19.6428571,29.4047619 C20.5952381,31.0714286 20.8333333,32.1428571 20.8333333,32.1428571 C16.3095238,36.3095238 10.2380952,39.8809524 2.73809524,42.1428571 L0,37.9761905 C7.85714286,35.5952381 14.047619,31.547619 17.9761905,26.7857143 C17.9761905,26.7857143 18.6904762,27.7380952 19.6428571,29.4047619 L19.6428571,29.4047619 Z" id="Shape" fill="#97CA2F"></path>
                        <text id="The-Global-Sports-Network" fill="#EBECEF" font-family="Helvetica" font-size="9.2109" font-weight="normal">
                            <tspan x="77.2967857" y="45.635119" fill="#EBECEF">The Global Sports Network</tspan>
                        </text>
                        <path d="M2.5,7.61904762 L0,11.7857143 C20.3571429,17.6190476 30.3571429,33.6904762 22.1428571,47.7380952 L28.3333333,49.5238095 C37.8571429,33.2142857 26.3095238,14.5238095 2.5,7.61904762 L2.5,7.61904762 Z" id="Shape" fill="#666766"></path>
                    </g>
                </g>
            </g>
        </g>
    </g>
</svg>